# xmcd CD database file
#
# Track frame offsets:
#	150
#	21617
#	45285
#	66467
#	87685
#	102002
#	117329
#	138245
#	146162
#	163544
#	180909
#	197850
#	219602
#	243476
#	262712
#	290412
#	310696
#
# Disc length: 4518 seconds
#
# Revision: 0
# Processed by: cddbd v1.5.2PL0 Copyright (c) Steve Scherf et al.
# Submitted via: CDex 1.51
#
DISCID=f811a411
DTITLE=Rude Dog - Resurrection
DYEAR=2010
DGENRE=Blues
TTITLE0=I'm Ready
TTITLE1=They Call Me The Rude Dog
TTITLE2=Born Under a Bad Sign (Rude Vocal Mix)
TTITLE3=Back Door Man
TTITLE4=The Dog Is In The House
TTITLE5=My Little Hampden Hon
TTITLE6=Phone Call from Leavenworth
TTITLE7=Standing With The Devil
TTITLE8=You Got To Move
TTITLE9=Prodigal Son
TTITLE10=River Runs Deep
TTITLE11=I'll Play The Blues For You
TTITLE12=Dirty Lipstick
TTITLE13=Love in Vain
TTITLE14=Gallis Pole
TTITLE15=Crab Town Crawl
TTITLE16=Shake Your Hips (Live)
EXTD=YEAR: 2010
EXTT0=
EXTT1=
EXTT2=
EXTT3=
EXTT4=
EXTT5=
EXTT6=
EXTT7=
EXTT8=
EXTT9=
EXTT10=
EXTT11=
EXTT12=
EXTT13=
EXTT14=
EXTT15=
EXTT16=
PLAYORDER=
